HIERARCHY
ROOT Hips
{
 OFFSET 0.000000 0.000000 0.000000
 CHANNELS 6 Xposition Yposition Zposition Yrotation Xrotation Zrotation
 JOINT Chest
 {
  OFFSET 0.000000 9.585900 0.002600
  CHANNELS 3 Yrotation Xrotation Zrotation
  JOINT Chest2
  {
   OFFSET 0.000000 9.601200 -0.005300
   CHANNELS 3 Yrotation Xrotation Zrotation
   JOINT Chest3
   {
    OFFSET 0.000000 9.561800 0.000000
    CHANNELS 3 Yrotation Xrotation Zrotation
    JOINT Chest4
    {
     OFFSET 0.000000 9.552100 0.000000
     CHANNELS 3 Yrotation Xrotation Zrotation
     JOINT Neck
     {
      OFFSET 0.000000 14.453000 0.000000
      CHANNELS 3 Yrotation Xrotation Zrotation
      JOINT Head
      {
       OFFSET 0.000000 8.936500 -0.011300
       CHANNELS 3 Yrotation Xrotation Zrotation
       End Site
       {
        OFFSET 0.000000 17.073600 -0.006000
       }
      }
     }
     JOINT RightCollar
     {
      OFFSET -2.921100 9.558500 0.000000
      CHANNELS 3 Yrotation Xrotation Zrotation
      JOINT RightShoulder
      {
       OFFSET -13.519700 0.000000 0.000000
       CHANNELS 3 Yrotation Xrotation Zrotation
       JOINT RightElbow
       {
        OFFSET 0.000000 -29.696600 0.000000
        CHANNELS 3 Yrotation Xrotation Zrotation
        JOINT RightWrist
        {
         OFFSET 0.000000 -24.004700 0.000000
         CHANNELS 3 Yrotation Xrotation Zrotation
         End Site
         {
          OFFSET 0.000000 -17.728500 0.000000
         }
        }
       }
      }
     }
     JOINT LeftCollar
     {
      OFFSET 2.921100 9.558500 0.000000
      CHANNELS 3 Yrotation Xrotation Zrotation
      JOINT LeftShoulder
      {
       OFFSET 13.519700 0.000000 0.000000
       CHANNELS 3 Yrotation Xrotation Zrotation
       JOINT LeftElbow
       {
        OFFSET 0.000000 -29.696600 0.000000
        CHANNELS 3 Yrotation Xrotation Zrotation
        JOINT LeftWrist
        {
         OFFSET 0.000000 -24.004700 0.000000
         CHANNELS 3 Yrotation Xrotation Zrotation
         End Site
         {
          OFFSET 0.000000 -17.728500 0.000000
         }
        }
       }
      }
     }
    }
   }
  }
 }
 JOINT RightHip
 {
  OFFSET -7.771700 -0.012900 -0.001300
  CHANNELS 3 Yrotation Xrotation Zrotation
  JOINT RightKnee
  {
   OFFSET 0.000000 -40.869800 0.001200
   CHANNELS 3 Yrotation Xrotation Zrotation
   JOINT RightAnkle
   {
    OFFSET 0.000000 -39.717900 0.002100
    CHANNELS 3 Yrotation Xrotation Zrotation
    JOINT RightToe
    {
     OFFSET 0.000000 -4.965400 11.033500
     CHANNELS 3 Yrotation Xrotation Zrotation
     End Site
     {
      OFFSET 0.000000 -1.423100 5.872300
     }
    }
   }
  }
 }
 JOINT LeftHip
 {
  OFFSET 7.771700 -0.012900 -0.001300
  CHANNELS 3 Yrotation Xrotation Zrotation
  JOINT LeftKnee
  {
   OFFSET 0.000000 -40.869800 0.001200
   CHANNELS 3 Yrotation Xrotation Zrotation
   JOINT LeftAnkle
   {
    OFFSET 0.000000 -39.717900 0.002100
    CHANNELS 3 Yrotation Xrotation Zrotation
    JOINT LeftToe
    {
     OFFSET 0.000000 -4.965400 11.033500
     CHANNELS 3 Yrotation Xrotation Zrotation
     End Site
     {
      OFFSET 0.000000 -1.423100 5.872300
     }
    }
   }
  }
 }
}
MOTION
Frames: 8
Frame Time: 0.008333
0.000000 85.388000 0.000000 0.000000 -5.767877 0.000000 0.000000 11.653817 0.000000 0.000000 -5.885947 0.000000 0.000000 -0.000000 0.000000 0.000000 -0.000000 0.000000 0.000000 12.528835 0.000000 0.000000 0.711642 0.000000 0.000000 -0.000000 0.000000 0.000000 0.000000 -90.000000 0.000000 -2.309062 0.000000 0.000000 2.309062 0.000000 0.000000 -0.000000 0.000000 0.000000 -0.000000 90.000000 0.000000 -2.309062 0.000000 0.000000 2.309062 0.000000 0.000000 8.520406 0.000000 0.000000 1.905762 0.000000 -0.000000 -4.658285 0.000000 0.000000 -0.000000 0.000000 0.000000 8.520406 0.000000 0.000000 1.905762 0.000000 -0.000000 -4.658285 0.000000 0.000000 -0.000000 0.000000
-23.497188 44.098063 26.283637 179.943952 -40.047719 -0.534923 0.548019 31.568247 1.073865 -0.001861 6.535449 0.305877 0.012045 10.110047 0.475131 0.197092 24.955547 1.229611 3.560742 15.286844 -14.787360 7.755574 -8.642195 -18.080923 14.443908 -0.434930 -5.880387 -11.555584 -13.920421 -3.903590 -31.783470 -79.833356 30.219758 1.335440 6.787352 -8.005384 -20.141184 -3.082597 -7.493390 18.430010 -13.955446 7.372392 93.101232 -71.851628 -102.306490 8.937347 13.115036 5.890692 -1.139249 -50.868681 4.123369 -159.196469 67.832171 -157.304585 -9.482838 -26.675718 7.882318 0.051776 -0.824044 0.040381 1.877909 -34.615184 -3.939067 175.304960 59.016620 174.922295 -0.919940 -43.659555 3.180421 0.107048 0.349267 0.047268
-23.483725 44.100536 26.284185 179.936330 -40.006079 -0.568311 0.546612 31.574529 1.102469 -0.017163 6.556368 0.302262 0.004137 10.116179 0.471378 0.175340 24.961710 1.216757 4.026203 15.538260 -14.855428 8.318664 -8.307052 -18.301923 14.445500 -0.361540 -5.879899 -11.914367 -13.909808 -4.120011 -39.440543 -81.118742 38.395449 1.480118 6.977007 -6.712355 -20.100277 -3.022292 -7.513396 18.644700 -13.935090 7.501333 96.554483 -70.364193 -106.627266 9.136812 12.852472 5.462047 -1.781477 -50.878711 4.738753 -158.720640 67.817079 -157.196691 -9.667617 -26.666781 7.922104 0.204926 -0.798416 0.075586 1.847825 -34.659379 -3.874910 175.332254 59.012069 174.946533 -0.918900 -43.678181 3.175553 0.105383 0.362697 0.048845
-23.470249 44.103794 26.283560 179.922108 -39.965848 -0.584718 0.526525 31.600624 1.102740 -0.022085 6.561263 0.299709 -0.003570 10.123171 0.467099 0.153998 24.968604 1.202652 4.498423 15.786553 -14.921285 8.891704 -7.971149 -18.524310 14.449586 -0.281114 -5.879498 -12.278049 -13.922489 -4.364809 -49.489343 -82.092167 48.985437 1.518306 7.013859 -5.318034 -20.057098 -2.959487 -7.535526 18.879579 -13.931708 7.622705 99.523762 -68.914162 -110.490160 9.363432 12.519871 4.977316 -2.055518 -50.916604 5.056456 -158.493282 67.790420 -157.113878 -9.842709 -26.672547 7.965954 0.341940 -0.793277 0.115588 1.824721 -34.695272 -3.824063 175.364528 59.014078 174.970326 -0.900881 -43.686460 3.167627 0.093286 0.365054 0.042641
-23.462928 44.110074 26.278799 179.929435 -39.951041 -0.569391 0.447674 31.671043 1.036293 -0.016199 6.549818 0.298141 -0.010489 10.130525 0.462310 0.134473 24.975855 1.187416 4.976151 16.027175 -14.984032 9.473148 -7.639900 -18.746688 14.453928 -0.195708 -5.878311 -12.639249 -13.953420 -4.630747 -62.107335 -82.648938 62.157045 1.519961 6.855231 -3.870119 -20.012771 -2.890284 -7.554645 19.148692 -13.942397 7.736862 102.124226 -67.511390 -114.019065 9.623601 12.109718 4.448343 -2.160761 -50.936530 5.176883 -158.457335 67.763624 -157.129222 -10.039419 -26.644596 7.998667 0.477039 -0.849287 0.158655 1.821549 -34.703540 -3.837091 175.381857 59.018346 174.985486 -0.904308 -43.690891 3.163343 0.100245 0.366993 0.045108
-23.453272 44.111165 26.279918 179.913086 -39.886369 -0.550583 0.429508 31.640912 1.007207 -0.018247 6.552340 0.296596 -0.039898 10.176385 0.451005 0.116855 24.982718 1.171433 5.458454 16.255528 -15.043347 10.062201 -7.318579 -18.968421 14.452894 -0.109840 -5.874087 -12.972365 -14.001289 -4.908325 -76.216967 -82.648009 76.820160 1.501723 6.568747 -2.409952 -19.974882 -2.814458 -7.565849 19.460191 -13.963873 7.843110 104.415835 -66.137325 -117.277951 9.910490 11.635708 3.895804 -2.258886 -51.002909 5.289424 -158.376410 67.753549 -157.106586 -10.132553 -26.633623 8.022667 0.547139 -0.885499 0.178341 1.827742 -34.767791 -3.837470 175.409976 59.017988 175.010236 -0.895579 -43.700349 3.153505 0.105166 0.372456 0.047233
-23.444294 44.111338 26.282022 179.892151 -39.811604 -0.529663 0.385147 31.660973 0.951081 0.008890 6.495602 0.306422 -0.065979 10.226706 0.436986 0.102011 24.989362 1.154057 5.943604 16.469596 -15.098521 10.656858 -7.009937 -19.187897 14.446994 -0.029147 -5.863608 -13.267650 -14.066129 -5.188432 -89.379238 -82.062897 90.547904 1.443971 6.225014 -0.963452 -19.950326 -2.733101 -7.567869 19.804764 -14.000013 7.938927 106.438722 -64.780507 -120.300109 10.217496 11.125738 3.340064 -2.278558 -51.076992 5.323010 -158.346120 67.752439 -157.093443 -10.135673 -26.658775 8.039840 0.540932 -0.894976 0.172432 1.837917 -34.842197 -3.840425 175.448249 59.021313 175.042774 -0.868266 -43.699963 3.141226 0.096489 0.372118 0.044483
-23.435844 44.111865 26.283975 179.863280 -39.737136 -0.511279 0.354842 31.687916 0.903142 -0.014954 6.542521 0.292466 -0.035561 10.172556 0.440120 0.091456 24.996382 1.135226 6.426846 16.671072 -15.148578 11.251014 -6.712934 -19.402237 14.445209 0.047297 -5.850420 -13.551852 -14.148126 -5.464435 -99.931981 -81.022216 101.696421 1.319253 5.879139 0.480011 -19.941022 -2.645610 -7.563690 20.155036 -14.053708 8.024156 108.252059 -63.436181 -123.114818 10.532079 10.611484 2.796489 -2.265848 -51.153943 5.326156 -158.335295 67.757385 -157.070570 -10.114969 -26.658594 8.032345 0.529952 -0.920409 0.172555 1.855345 -34.915083 -3.836280 175.471659 59.023877 175.066713 -0.856130 -43.699062 3.134338 0.093387 0.369675 0.043078
